<svg height="512pt" viewBox="0 0 511 512" width="512pt" xmlns="http://www.w3.org/2000/svg"><path d="m294.214844 435.421875h-236.851563v-169.261719c0-26.289062 21.3125-47.601562 47.597657-47.601562h141.652343c26.289063 0 47.601563 21.3125 47.601563 47.601562zm0 0" fill="#ff8354"/><path d="m333.972656 328.457031h-15.035156c-24.546875 0-44.441406 19.898438-44.441406 44.441407v62.523437h-197.417969v-62.523437c0-24.542969-19.894531-44.441407-44.4375-44.441407h-15.035156c-9.449219 0-17.105469 7.660157-17.105469 17.105469v115.566406c0 15.550782 12.605469 28.152344 28.152344 28.152344h294.269531c15.550781 0 28.152344-12.605469 28.152344-28.152344v-115.570312c0-9.445313-7.652344-17.101563-17.101563-17.101563zm0 0" fill="#e0734a"/><path d="m278.015625 450.566406h-204.453125c-8.945312 0-16.199219-7.253906-16.199219-16.199218v-43.761719c0-8.949219 7.25-16.203125 16.199219-16.203125h204.453125c8.945313 0 16.199219 7.253906 16.199219 16.203125v43.761719c0 8.945312-7.253906 16.199218-16.199219 16.199218zm0 0" fill="#ff8354"/><path d="m278.015625 374.402344h-204.453125c-8.945312 0-16.199219 7.253906-16.199219 16.203125v14.390625c0-8.945313 7.25-16.199219 16.199219-16.199219h204.453125c8.945313 0 16.199219 7.25 16.199219 16.199219v-14.390625c0-8.949219-7.253906-16.203125-16.199219-16.203125zm0 0" fill="#ffac8c"/><path d="m66.601562 512h-18.476562c-5.636719 0-10.203125-4.566406-10.203125-10.203125v-12.515625h38.882813v12.515625c0 5.636719-4.570313 10.203125-10.203126 10.203125zm0 0" fill="#6770e6"/><path d="m303.453125 512h-18.476563c-5.636718 0-10.203124-4.566406-10.203124-10.203125v-12.515625h38.882812v12.515625c0 5.636719-4.566406 10.203125-10.203125 10.203125zm0 0" fill="#6770e6"/><path d="m66.601562 502h-18.476562c-5.636719 0-10.203125-4.566406-10.203125-10.203125v10c0 5.636719 4.566406 10.203125 10.203125 10.203125h18.476562c5.632813 0 10.203126-4.566406 10.203126-10.203125v-10c0 5.636719-4.570313 10.203125-10.203126 10.203125zm0 0" fill="#5861c7"/><path d="m303.453125 502h-18.476563c-5.636718 0-10.203124-4.566406-10.203124-10.203125v10c0 5.636719 4.566406 10.203125 10.203124 10.203125h18.476563c5.636719 0 10.203125-4.566406 10.203125-10.203125v-10c0 5.636719-4.566406 10.203125-10.203125 10.203125zm0 0" fill="#5861c7"/><path d="m475.128906 489.28125h-71.445312c-8.710938 0-15.773438 7.0625-15.773438 15.769531 0 3.839844 3.109375 6.949219 6.949219 6.949219h89.089844c3.839843 0 6.949219-3.109375 6.949219-6.949219 0-8.707031-7.058594-15.769531-15.769532-15.769531zm0 0" fill="#6770e6"/><path d="m483.953125 502h-89.09375c-2.382813 0-4.480469-1.199219-5.730469-3.027344-.78125 1.875-1.21875 3.925782-1.21875 6.078125 0 3.839844 3.109375 6.949219 6.949219 6.949219h89.089844c3.839843 0 6.949219-3.109375 6.949219-6.949219 0-2.152343-.433594-4.207031-1.21875-6.078125-1.25 1.828125-3.34375 3.027344-5.726563 3.027344zm0 0" fill="#5861c7"/><path d="m428.730469 93.960938h21.347656v395.320312h-21.347656zm0 0" fill="#6770e6"/><path d="m465.46875 166.480469c0 14.394531-11.667969 26.0625-26.0625 26.0625s-26.0625-11.667969-26.0625-26.0625 11.667969-26.066407 26.0625-26.066407 26.0625 11.671876 26.0625 26.066407zm0 0" fill="#6770e6"/><path d="m484.839844 0h-90.867188c-6.097656 0-11.203125 4.617188-11.824218 10.683594l-15.597657 153.46875c-.128906 1.25.855469 2.339844 2.113281 2.339844h141.480469c1.261719 0 2.242188-1.089844 2.117188-2.339844l-15.601563-153.46875c-.617187-6.066406-5.722656-10.683594-11.820312-10.683594zm0 0" fill="#ff8354"/><path d="m392.105469 14h94.597656c4.71875 0 8.855469 2.554688 10.9375 6.351562l-.980469-9.667968c-.617187-6.066406-5.722656-10.683594-11.820312-10.683594h-90.867188c-6.097656 0-11.203125 4.617188-11.820312 10.683594l-.980469 9.667968c2.082031-3.800781 6.21875-6.351562 10.933594-6.351562zm0 0" fill="#ffac8c"/><path d="m395.546875 166.480469h6.078125v76.523437h-6.078125zm0 0" fill="#6770e6"/><path d="m408.550781 246.035156c0 5.503906-4.460937 9.964844-9.964843 9.964844-5.503907 0-9.964844-4.460938-9.964844-9.964844s4.460937-9.96875 9.964844-9.96875c5.503906 0 9.964843 4.464844 9.964843 9.96875zm0 0" fill="#6770e6"/><path d="m251.496094 72.132812-75.707032-53.628906-75.707031 53.628906-5.894531-8.320312 81.601562-57.800781 81.601563 57.800781zm0 0" fill="#b665c2"/><path d="m261.898438 186.441406h-172.222657c-3.925781 0-7.109375-3.183594-7.109375-7.109375v-123.097656c0-3.925781 3.183594-7.109375 7.109375-7.109375h172.222657c3.925781 0 7.109374 3.183594 7.109374 7.109375v123.097656c0 3.925781-3.183593 7.109375-7.109374 7.109375zm0 0" fill="#6770e6"/><path d="m261.898438 49.125h-172.222657c-3.925781 0-7.109375 3.179688-7.109375 7.105469v5.097656c0-3.925781 3.183594-7.105469 7.109375-7.105469h172.222657c3.925781 0 7.109374 3.179688 7.109374 7.105469v-5.097656c0-3.921875-3.183593-7.105469-7.109374-7.105469zm0 0" fill="#8f95e6"/><path d="m254.441406 63.691406v108.183594h-157.308594v-108.183594zm0 0" fill="#a1f1fc"/><path d="m188.507812 12.71875c0 7.023438-5.695312 12.71875-12.71875 12.71875-7.023437 0-12.71875-5.695312-12.71875-12.71875s5.695313-12.71875 12.71875-12.71875c7.023438 0 12.71875 5.695312 12.71875 12.71875zm0 0" fill="#d476e2"/><path d="m175.789062 5.097656c6.148438 0 11.28125 4.367188 12.460938 10.167969.167969-.824219.257812-1.675781.257812-2.546875 0-7.023438-5.695312-12.71875-12.71875-12.71875-7.023437 0-12.71875 5.695312-12.71875 12.71875 0 .875.085938 1.726562.253907 2.546875 1.183593-5.800781 6.3125-10.167969 12.464843-10.167969zm0 0" fill="#ea82fa"/><path d="m151.234375 84.960938c-4.722656-5.980469-13.792969-5.980469-18.515625 0l-35.585938 45.066406v41.847656h122.726563zm0 0" fill="#5fd4e3"/><path d="m254.445312 171.875v-28.574219l-30.289062-38.355469c-4.71875-5.980468-13.789062-5.980468-18.511719 0l-52.847656 66.929688zm0 0" fill="#69ebfc"/><path d="m160.324219 123.785156c.015625-.261718.023437-.53125.023437-.808594 0-9.152343-7.425781-16.582031-16.582031-16.582031-9.164063 0-16.589844 7.425781-16.589844 16.582031 0 .34375.011719.683594.035157 1.019532-7.101563 1.882812-12.332032 8.34375-12.332032 16.03125 0 9.164062 7.421875 16.589844 16.585938 16.589844h25.476562c9.160156 0 16.582032-7.425782 16.582032-16.589844 0-7.996094-5.660157-14.675782-13.199219-16.242188zm0 0" fill="#d476e2"/><path d="m157.761719 132.527344c-1.003907-1.257813-2.835938-1.464844-4.097657-.460938l-6.546874 5.226563v-10.722657c0-1.609374-1.304688-2.914062-2.914063-2.914062s-2.914063 1.304688-2.914063 2.914062v17.023438l-9.980468-6.457031c-1.347656-.875-3.152344-.488281-4.027344.859375-.875 1.351562-.488281 3.15625.863281 4.03125l13.144531 8.507812v25.703125c0 1.609375 1.304688 2.914063 2.914063 2.914063s2.914063-1.304688 2.914063-2.914063v-31.496093l10.183593-8.121094c1.253907-1.003906 1.460938-2.835938.460938-4.09375zm0 0" fill="#6770e6"/><path d="m209.554688 133.871094c.011718-.261719.019531-.53125.019531-.808594 0-9.152344-7.425781-16.582031-16.582031-16.582031-9.164063 0-16.589844 7.425781-16.589844 16.582031 0 .34375.011718.683594.035156 1.023438-7.097656 1.878906-12.328125 8.335937-12.328125 16.027343 0 9.164063 7.421875 16.589844 16.582031 16.589844h25.476563c9.160156 0 16.585937-7.425781 16.585937-16.589844-.003906-7.996093-5.660156-14.675781-13.199218-16.242187zm0 0" fill="#ea82fa"/><path d="m206.988281 142.613281c-1.003906-1.257812-2.839843-1.464843-4.09375-.460937l-6.550781 5.226562v-10.722656c0-1.609375-1.304688-2.914062-2.914062-2.914062-1.609376 0-2.914063 1.304687-2.914063 2.914062v17.023438l-9.976563-6.460938c-1.347656-.871094-3.15625-.488281-4.027343.863281-.875 1.351563-.488281 3.152344.863281 4.027344l13.144531 8.507813v11.140624c0 1.605469 1.300781 2.914063 2.914063 2.914063 1.609375 0 2.914062-1.304687 2.914062-2.914063v-16.929687l10.183594-8.121094c1.253906-1 1.457031-2.835937.457031-4.09375zm0 0" fill="#6770e6"/></svg>